solid OpenSCAD_Model
  facet normal -1 0 0
    outer loop
      vertex 0 0 0
      vertex 0 0 91
      vertex 0 29 91
    endloop
  endfacet
  facet normal 0 0 1
    outer loop
      vertex 0 0 91
      vertex 2 2 91
      vertex 2 27 91
    endloop
  endfacet
  facet normal 0 -1 0
    outer loop
      vertex 0 0 0
      vertex 29 0 91
      vertex 0 0 91
    endloop
  endfacet
  facet normal 0 0 1
    outer loop
      vertex 0 0 91
      vertex 27 2 91
      vertex 2 2 91
    endloop
  endfacet
  facet normal -1 0 0
    outer loop
      vertex 0 0 0
      vertex 0 29 91
      vertex 0 29 0
    endloop
  endfacet
  facet normal 0 0 -1
    outer loop
      vertex 0 0 0
      vertex 0 29 0
      vertex 29 29 0
    endloop
  endfacet
  facet normal 0 1 0
    outer loop
      vertex 0 29 0
      vertex 0 29 91
      vertex 29 29 0
    endloop
  endfacet
  facet normal 0 0 1
    outer loop
      vertex 0 0 91
      vertex 2 27 91
      vertex 0 29 91
    endloop
  endfacet
  facet normal 0 0 1
    outer loop
      vertex 0 29 91
      vertex 2 27 91
      vertex 29 29 91
    endloop
  endfacet
  facet normal 0 -1 0
    outer loop
      vertex 0 0 0
      vertex 29 0 0
      vertex 29 0 91
    endloop
  endfacet
  facet normal 0 0 -1
    outer loop
      vertex 0 0 0
      vertex 29 29 0
      vertex 29 0 0
    endloop
  endfacet
  facet normal 1 0 0
    outer loop
      vertex 29 0 0
      vertex 29 29 0
      vertex 29 0 91
    endloop
  endfacet
  facet normal 0 0 1
    outer loop
      vertex 0 0 91
      vertex 29 0 91
      vertex 27 2 91
    endloop
  endfacet
  facet normal 0 0 1
    outer loop
      vertex 29 0 91
      vertex 29 29 91
      vertex 27 2 91
    endloop
  endfacet
  facet normal 0 1 0
    outer loop
      vertex 0 29 91
      vertex 29 29 91
      vertex 29 29 0
    endloop
  endfacet
  facet normal 0 0 1
    outer loop
      vertex 29 29 91
      vertex 2 27 91
      vertex 27 27 91
    endloop
  endfacet
  facet normal 1 0 0
    outer loop
      vertex 29 0 91
      vertex 29 29 0
      vertex 29 29 91
    endloop
  endfacet
  facet normal 0 0 1
    outer loop
      vertex 29 29 91
      vertex 27 27 91
      vertex 27 2 91
    endloop
  endfacet
  facet normal 0 1 0
    outer loop
      vertex 2 2 2
      vertex 2 2 91
      vertex 27 2 2
    endloop
  endfacet
  facet normal 1 0 0
    outer loop
      vertex 2 2 2
      vertex 2 27 91
      vertex 2 2 91
    endloop
  endfacet
  facet normal 1 0 0
    outer loop
      vertex 2 2 2
      vertex 2 27 2
      vertex 2 27 91
    endloop
  endfacet
  facet normal 0 0 1
    outer loop
      vertex 2 2 2
      vertex 27 27 2
      vertex 2 27 2
    endloop
  endfacet
  facet normal 0 -1 0
    outer loop
      vertex 2 27 2
      vertex 27 27 91
      vertex 2 27 91
    endloop
  endfacet
  facet normal 0 0 1
    outer loop
      vertex 2 2 2
      vertex 27 2 2
      vertex 27 27 2
    endloop
  endfacet
  facet normal -1 0 0
    outer loop
      vertex 27 2 2
      vertex 27 2 91
      vertex 27 27 2
    endloop
  endfacet
  facet normal 0 1 0
    outer loop
      vertex 27 2 2
      vertex 2 2 91
      vertex 27 2 91
    endloop
  endfacet
  facet normal 0 -1 0
    outer loop
      vertex 2 27 2
      vertex 27 27 2
      vertex 27 27 91
    endloop
  endfacet
  facet normal -1 0 0
    outer loop
      vertex 27 27 2
      vertex 27 2 91
      vertex 27 27 91
    endloop
  endfacet
endsolid OpenSCAD_Model
